<?xml version="1.0" standalone="no"?>
<!DOCTYPE svg PUBLIC "-//W3C//DTD SVG 20010904//EN"
 "http://www.w3.org/TR/2001/REC-SVG-20010904/DTD/svg10.dtd">
<svg version="1.0" xmlns="http://www.w3.org/2000/svg"
 width="500.000000pt" height="500.000000pt" viewBox="0 0 500.000000 500.000000"
 preserveAspectRatio="xMidYMid meet">

<g transform="translate(0.000000,500.000000) scale(0.100000,-0.100000)"
fill="#000000" stroke="none">
<path d="M0 2500 l0 -2500 2500 0 2500 0 0 2500 0 2500 -2500 0 -2500 0 0
-2500z m2425 1010 c17 16 37 24 62 24 31 0 44 -8 98 -65 50 -53 64 -77 78
-125 9 -33 17 -78 17 -99 0 -54 22 -75 79 -75 81 0 122 -18 184 -79 64 -65 73
-98 35 -138 l-22 -23 89 -90 c68 -70 86 -93 76 -103 -9 -9 -47 24 -166 143
-104 104 -156 149 -159 139 -3 -7 -7 -61 -8 -119 -4 -153 -22 -134 -26 28 l-3
132 32 0 c25 0 44 -12 85 -50 46 -44 57 -49 74 -40 29 16 24 40 -18 86 -57 64
-97 84 -167 84 l-60 0 -87 87 c-78 78 -103 113 -81 113 4 0 29 -21 55 -47 26
-26 51 -44 54 -40 4 4 -1 36 -10 71 -16 57 -26 72 -81 125 -35 34 -66 61 -70
61 -3 0 -15 -5 -26 -10 -26 -15 -24 -52 6 -80 24 -22 33 -50 17 -50 -4 0 -97
89 -206 199 -129 129 -196 203 -191 211 5 8 58 -38 161 -141 l153 -153 26 24z
m77 173 c39 -38 47 -53 26 -53 -16 0 -78 61 -78 77 0 21 12 15 52 -24z m-549
-171 c59 -59 66 -72 44 -72 -13 0 -127 110 -127 123 0 20 32 1 83 -51z m856
-96 c86 -86 131 -138 126 -146 -5 -8 -52 32 -141 121 -119 119 -151 159 -126
159 4 0 67 -60 141 -134z m95 55 c36 -36 56 -64 51 -71 -8 -14 -125 96 -125
117 0 23 15 14 74 -46z m-752 -88 c9 -10 19 -28 22 -40 4 -12 17 -25 29 -29
35 -10 57 -35 57 -64 0 -42 -21 -61 -74 -67 -41 -5 -47 -8 -44 -27 3 -19 10
-21 76 -24 86 -3 104 6 95 50 -8 42 18 33 32 -10 5 -18 15 -32 22 -32 17 0 43
-40 43 -66 0 -11 -9 -29 -20 -39 -18 -16 -20 -29 -18 -89 3 -69 4 -71 30 -74
22 -3 30 2 38 23 5 14 10 42 10 61 0 19 5 34 10 34 6 0 10 -36 10 -88 0 -75 3
-92 19 -106 15 -14 24 -15 40 -6 17 8 21 20 21 55 0 33 4 45 15 45 12 0 15
-15 15 -73 0 -75 9 -97 42 -97 25 0 38 31 38 94 0 56 15 76 25 34 3 -13 6 -63
8 -113 l2 -90 30 0 c28 0 30 3 35 44 6 54 30 69 30 19 0 -27 12 -45 66 -102
48 -49 63 -71 55 -79 -8 -8 -27 5 -70 47 -58 57 -60 58 -82 42 -13 -9 -30 -16
-38 -16 -23 0 -61 41 -61 67 0 19 -5 23 -32 23 -33 0 -78 33 -78 57 0 10 -7
12 -19 8 -31 -9 -70 15 -79 49 -7 26 -14 32 -47 37 -52 9 -65 30 -65 106 l0
63 -41 0 c-53 0 -76 13 -84 48 -5 23 -14 30 -50 40 -38 10 -46 17 -53 44 -5
21 -16 34 -28 36 -29 6 -64 43 -64 67 0 12 -9 30 -20 40 -11 10 -20 31 -20 47
0 47 31 68 98 68 44 0 63 -5 74 -17z m897 -227 c33 -33 51 -59 46 -66 -8 -14
-115 86 -115 107 0 23 15 14 69 -41z m-1047 -123 c68 -68 78 -83 56 -83 -17 0
-138 121 -138 137 0 23 13 14 82 -54z m323 -233 c147 -148 186 -193 176 -203
-9 -9 -54 30 -201 178 -104 105 -190 196 -190 203 0 31 39 -1 215 -178z m-123
-27 c93 -93 114 -123 85 -123 -20 0 -210 196 -203 209 4 6 10 11 14 11 4 0 51
-44 104 -97z m-202 -518 l0 -75 60 0 60 0 0 75 0 75 60 0 60 0 0 -185 0 -185
-60 0 -60 0 0 75 0 75 -60 0 -60 0 0 -75 0 -75 -60 0 -60 0 0 185 0 185 60 0
60 0 0 -75z m710 -54 c0 -71 3 -136 6 -145 3 -9 17 -16 30 -16 21 0 24 -5 24
-34 0 -26 -5 -35 -22 -40 -80 -21 -132 10 -143 85 -3 24 -5 94 -3 154 l3 110
40 6 c22 3 46 7 53 8 9 1 12 -31 12 -128z m-209 13 c30 -15 59 -65 59 -103 0
-16 -9 -20 -52 -26 -110 -13 -121 -18 -96 -43 14 -14 82 -16 108 -2 15 8 19 5
23 -23 3 -17 1 -36 -5 -42 -5 -5 -42 -10 -83 -10 -58 0 -79 4 -102 21 -40 29
-67 87 -59 129 8 39 49 93 80 105 34 14 95 11 127 -6z m577 -4 c57 -35 77
-111 45 -177 -33 -71 -130 -97 -178 -48 l-25 24 0 -58 0 -59 -37 -6 c-21 -4
-46 -9 -55 -12 -17 -5 -18 8 -18 170 l0 176 55 0 c48 0 55 -3 55 -20 0 -18 2
-17 25 5 30 31 87 33 133 5z m-848 -754 c0 -140 7 -156 65 -156 55 0 65 25 65
162 l0 118 55 0 55 0 0 -134 c0 -122 -2 -136 -23 -167 -31 -47 -84 -71 -156
-70 -64 0 -103 15 -139 53 -33 36 -42 80 -42 205 l0 113 60 0 60 0 0 -124z
m657 18 c-4 -58 -9 -110 -13 -115 -10 -16 -61 -10 -68 8 -4 10 -10 62 -13 115
l-6 98 53 0 53 0 -6 -106z m-183 0 c9 -4 16 -18 16 -34 0 -27 -1 -27 -50 -22
-41 4 -50 2 -50 -11 0 -10 15 -20 41 -27 84 -23 107 -94 47 -145 -30 -25 -37
-27 -101 -22 -37 2 -69 6 -71 8 -3 2 -2 16 1 30 4 24 9 27 51 25 55 -1 67 14
26 32 -70 31 -79 38 -82 66 -5 45 6 74 36 90 27 15 107 21 136 10z m178 -181
c22 -20 23 -41 1 -65 -32 -36 -103 -10 -103 39 0 39 68 57 102 26z"/>
<path d="M2020 3355 c-6 -8 -10 -22 -8 -32 2 -14 15 -19 59 -21 65 -3 88 12
69 47 -8 17 -20 21 -59 21 -30 0 -53 -5 -61 -15z"/>
<path d="M2125 3270 c-11 -5 -32 -9 -47 -9 -16 -1 -28 -7 -28 -14 0 -27 25
-37 91 -37 70 0 94 13 87 47 -4 20 -68 29 -103 13z"/>
<path d="M2288 3101 c-27 -9 -48 -21 -48 -26 0 -22 26 -35 70 -35 47 0 70 13
70 38 0 14 -29 43 -40 40 -3 0 -26 -8 -52 -17z"/>
<path d="M2400 2151 c-16 -31 -13 -34 31 -28 49 6 56 12 39 32 -18 21 -57 19
-70 -4z"/>
<path d="M2936 2134 c-21 -21 -20 -57 2 -77 37 -34 92 -11 92 38 0 30 -25 55
-55 55 -13 0 -31 -7 -39 -16z"/>
</g>
</svg>
